<svg width="24" height="24" viewBox="0 0 24 24" fill="none" xmlns="http://www.w3.org/2000/svg">
<path d="M10.5342 5.02284L3.27416 17.1428C3.12448 17.4021 3.04528 17.696 3.04444 17.9953C3.0436 18.2946 3.12116 18.589 3.26939 18.849C3.41762 19.1091 3.63136 19.3258 3.88934 19.4776C4.14733 19.6294 4.44056 19.711 4.73988 19.7143H19.2599C19.5592 19.711 19.8524 19.6294 20.1104 19.4776C20.3684 19.3258 20.5821 19.1091 20.7304 18.849C20.8786 18.589 20.9562 18.2946 20.9553 17.9953C20.9545 17.696 20.8753 17.4021 20.7256 17.1428L13.4656 5.02284C13.3128 4.77093 13.0976 4.56266 12.8409 4.41811C12.5842 4.27357 12.2945 4.19763 11.9999 4.19763C11.7052 4.19763 11.4156 4.27357 11.1589 4.41811C10.9021 4.56266 10.687 4.77093 10.5342 5.02284Z" fill="#FB5B29"/>
<path d="M10.5342 5.02284L3.27416 17.1428C3.12448 17.4021 3.04528 17.696 3.04444 17.9953C3.0436 18.2946 3.12116 18.589 3.26939 18.849C3.41762 19.1091 3.63136 19.3258 3.88934 19.4776C4.14733 19.6294 4.44056 19.711 4.73988 19.7143H19.2599C19.5592 19.711 19.8524 19.6294 20.1104 19.4776C20.3684 19.3258 20.5821 19.1091 20.7304 18.849C20.8786 18.589 20.9562 18.2946 20.9553 17.9953C20.9545 17.696 20.8753 17.4021 20.7256 17.1428L13.4656 5.02284C13.3128 4.77093 13.0976 4.56266 12.8409 4.41811C12.5842 4.27357 12.2945 4.19763 11.9999 4.19763C11.7052 4.19763 11.4156 4.27357 11.1589 4.41811C10.9021 4.56266 10.687 4.77093 10.5342 5.02284Z" fill="url(#paint0_linear)" fill-opacity="0.3"/>
<path d="M12 9.42859V12.8572" stroke="white" stroke-width="2" stroke-linecap="round" stroke-linejoin="round"/>
<mask id="path-3-inside-1" fill="white">
<ellipse cx="12.0002" cy="16.2857" rx="0.857143" ry="0.857142"/>
</mask>
<path d="M11.8574 16.2857C11.8574 16.2068 11.9213 16.1429 12.0002 16.1429V18.1429C13.0259 18.1429 13.8574 17.3114 13.8574 16.2857H11.8574ZM12.0002 16.1429C12.0791 16.1429 12.1431 16.2068 12.1431 16.2857H10.1431C10.1431 17.3114 10.9745 18.1429 12.0002 18.1429V16.1429ZM12.1431 16.2857C12.1431 16.3646 12.0791 16.4286 12.0002 16.4286V14.4286C10.9745 14.4286 10.1431 15.2601 10.1431 16.2857H12.1431ZM12.0002 16.4286C11.9213 16.4286 11.8574 16.3646 11.8574 16.2857H13.8574C13.8574 15.2601 13.0259 14.4286 12.0002 14.4286V16.4286Z" fill="white" mask="url(#path-3-inside-1)"/>
<defs>
<linearGradient id="paint0_linear" x1="3.04443" y1="4.19763" x2="3.04443" y2="19.7143" gradientUnits="userSpaceOnUse">
<stop stop-color="#F5AA65"/>
<stop offset="0.661458" stop-color="#EF440E"/>
</linearGradient>
</defs>
</svg>
