<svg width="24" height="24" viewBox="0 0 24 24" fill="none" xmlns="http://www.w3.org/2000/svg">
<path d="M12.0001 20.5716C16.734 20.5716 20.5716 16.734 20.5716 12.0001C20.5716 7.26627 16.734 3.42871 12.0001 3.42871C7.26627 3.42871 3.42871 7.26627 3.42871 12.0001C3.42871 16.734 7.26627 20.5716 12.0001 20.5716Z" stroke="#1FEBBA" stroke-width="2" stroke-linecap="round" stroke-linejoin="round"/>
<path d="M12.0001 20.5716C16.734 20.5716 20.5716 16.734 20.5716 12.0001C20.5716 7.26627 16.734 3.42871 12.0001 3.42871C7.26627 3.42871 3.42871 7.26627 3.42871 12.0001C3.42871 16.734 7.26627 20.5716 12.0001 20.5716Z" stroke="url(#paint0_linear)" stroke-opacity="0.7" stroke-width="2" stroke-linecap="round" stroke-linejoin="round"/>
<path d="M12 6.85693V11.9998L15.4286 13.7141" stroke="#1FEBBA" stroke-width="2" stroke-linecap="round" stroke-linejoin="round"/>
<path d="M12 6.85693V11.9998L15.4286 13.7141" stroke="url(#paint1_linear)" stroke-opacity="0.7" stroke-width="2" stroke-linecap="round" stroke-linejoin="round"/>
<defs>
<linearGradient id="paint0_linear" x1="3.42871" y1="3.42871" x2="3.42871" y2="20.5716" gradientUnits="userSpaceOnUse">
<stop stop-color="#64FFEC"/>
<stop offset="1" stop-color="white" stop-opacity="0"/>
</linearGradient>
<linearGradient id="paint1_linear" x1="12" y1="6.85693" x2="12" y2="13.7141" gradientUnits="userSpaceOnUse">
<stop stop-color="#64FFEC"/>
<stop offset="1" stop-color="white" stop-opacity="0"/>
</linearGradient>
</defs>
</svg>
