<svg width="30" height="34" viewBox="0 0 30 34" fill="none" xmlns="http://www.w3.org/2000/svg">
<g filter="url(#filter0_d)">
<path d="M15 24.3199C20.5228 24.3199 25 19.8208 25 14.2708C25 8.72089 20.5228 4.22177 15 4.22177C9.47715 4.22177 5 8.72089 5 14.2708C5 19.8208 9.47715 24.3199 15 24.3199Z" stroke="#1FEBBA" stroke-width="2" stroke-linecap="round" stroke-linejoin="round"/>
<path d="M15 24.3199C20.5228 24.3199 25 19.8208 25 14.2708C25 8.72089 20.5228 4.22177 15 4.22177C9.47715 4.22177 5 8.72089 5 14.2708C5 19.8208 9.47715 24.3199 15 24.3199Z" stroke="url(#paint0_linear)" stroke-width="2" stroke-linecap="round" stroke-linejoin="round"/>
<path d="M15 8.24139V14.2708L19 16.2806" stroke="#1FEBBA" stroke-width="2" stroke-linecap="round" stroke-linejoin="round"/>
<path d="M15 8.24139V14.2708L19 16.2806" stroke="url(#paint1_linear)" stroke-width="2" stroke-linecap="round" stroke-linejoin="round"/>
</g>
<defs>
<filter id="filter0_d" x="-3" y="0.202148" width="36" height="36.1374" filterUnits="userSpaceOnUse" color-interpolation-filters="sRGB">
<feFlood flood-opacity="0" result="BackgroundImageFix"/>
<feColorMatrix in="SourceAlpha" type="matrix" values="0 0 0 0 0 0 0 0 0 0 0 0 0 0 0 0 0 0 127 0"/>
<feOffset dy="4"/>
<feGaussianBlur stdDeviation="2"/>
<feColorMatrix type="matrix" values="0 0 0 0 0 0 0 0 0 0 0 0 0 0 0 0 0 0 0.25 0"/>
<feBlend mode="normal" in2="BackgroundImageFix" result="effect1_dropShadow"/>
<feBlend mode="normal" in="SourceGraphic" in2="effect1_dropShadow" result="shape"/>
</filter>
<linearGradient id="paint0_linear" x1="15" y1="4.22177" x2="15" y2="24.3199" gradientUnits="userSpaceOnUse">
<stop stop-color="#64FFEC"/>
<stop offset="1" stop-color="white" stop-opacity="0"/>
</linearGradient>
<linearGradient id="paint1_linear" x1="17" y1="8.24139" x2="17" y2="16.2806" gradientUnits="userSpaceOnUse">
<stop stop-color="#64FFEC"/>
<stop offset="1" stop-color="white" stop-opacity="0"/>
</linearGradient>
</defs>
</svg>
