<svg width="24" height="24" viewBox="0 0 24 24" fill="none" xmlns="http://www.w3.org/2000/svg">
<path d="M13.7034 13.7143H7.47754" stroke="#0156A2" stroke-width="2" stroke-linecap="round" stroke-linejoin="round"/>
<path d="M13.7034 17.1429H7.47754" stroke="#0156A2" stroke-width="2" stroke-linecap="round" stroke-linejoin="round"/>
<path d="M9.03399 10.2857H8.25576H7.47754" stroke="#0156A2" stroke-width="2" stroke-linecap="round" stroke-linejoin="round"/>
<path d="M16.816 6.85714H14.8704L12.9248 6.85714" stroke="#0156A2" stroke-width="2" stroke-linecap="round" stroke-linejoin="round"/>
<path d="M16.8162 9.42857H16.038H15.2598" stroke="#0156A2" stroke-width="2" stroke-linecap="round" stroke-linejoin="round"/>
<path d="M11.9522 6H6.50449C6.14329 6 5.79688 6.16255 5.54147 6.45189C5.28607 6.74123 5.14258 7.13367 5.14258 7.54286V19.8857C5.14258 20.2949 5.28607 20.6873 5.54147 20.9767C5.79688 21.266 6.14329 21.4286 6.50449 21.4286H14.676C15.0372 21.4286 15.3836 21.266 15.639 20.9767C15.8944 20.6873 16.0379 20.2949 16.0379 19.8857V10.6286L11.9522 6Z" stroke="#0156A2" stroke-width="2" stroke-linecap="round" stroke-linejoin="round"/>
<path d="M16.8157 16.2857H17.5939C18.0067 16.2857 18.4026 16.0634 18.6945 15.6677C18.9864 15.2721 19.1504 14.7354 19.1504 14.1758V4.68132C19.1504 4.12174 18.9864 3.58508 18.6945 3.1894C18.4026 2.79372 17.2285 2.57143 16.8157 2.57143H10.5898C10.177 2.57143 9.78112 2.79372 9.48922 3.1894C9.19733 3.58508 9.03334 4.12174 9.03334 4.68132V5.73626" stroke="#0156A2" stroke-width="2" stroke-linecap="round" stroke-linejoin="round"/>
</svg>
