<svg width="44" height="49" viewBox="0 0 44 49" fill="none" xmlns="http://www.w3.org/2000/svg">
<g clip-path="url(#clip0)">
<path d="M35.1807 41.0962V45.6548L40.9789 39.5242H36.75C35.8847 39.5242 35.1807 40.2316 35.1807 41.0962Z" fill="#0156A2"/>
<path d="M39.8151 3.60071H37.2827V4.91229V7.09334C37.2827 8.86176 35.8551 10.3011 34.0902 10.3011H33.88C32.12 10.3011 30.6876 8.86667 30.6876 7.09334V4.91229V3.60071H13.3956V4.91229V7.09334C13.3956 8.86176 11.968 10.3011 10.2031 10.3011H9.99778C8.23778 10.3011 6.80533 8.86667 6.80533 7.09334V4.91229V3.60071H4.18489C1.87244 3.60071 0 5.48211 0 7.80562V44.7951C0 47.1186 1.87244 49 4.18489 49H34.2956C34.7893 49 35.2587 48.7937 35.596 48.4302L43.5209 39.8435C43.824 39.5144 43.9951 39.0821 43.9951 38.6302V7.80562C44 5.48211 42.1276 3.60071 39.8151 3.60071ZM35.1804 45.6547V41.0961C35.1804 40.2267 35.8844 39.5242 36.7449 39.5242H40.9738L35.1804 45.6547ZM41.3796 36.8912H36.7498C34.4422 36.8912 32.5649 38.7776 32.5649 41.0961V46.3621H4.18489C3.31956 46.3621 2.62044 45.6547 2.62044 44.7902V14.8695H41.3844C41.3796 14.8695 41.3796 36.8912 41.3796 36.8912Z" fill="#0156A2"/>
<path d="M9.99738 8.9207H10.2027C11.2049 8.9207 12.0214 8.10035 12.0214 7.09333V1.82737C12.0214 0.820351 11.2049 0 10.2027 0H9.99738C8.99516 0 8.17871 0.820351 8.17871 1.82737V7.09333C8.17871 8.10035 8.99516 8.9207 9.99738 8.9207Z" fill="#0156A2"/>
<path d="M33.8851 8.9207H34.0953C35.0975 8.9207 35.914 8.10035 35.914 7.09333V1.82737C35.914 0.820351 35.0975 0 34.0953 0H33.8851C32.8829 0 32.0664 0.820351 32.0664 1.82737V7.09333C32.0615 8.10035 32.878 8.9207 33.8851 8.9207Z" fill="#0156A2"/>
<path d="M27.594 26.6512C28.9948 30.0256 31.1399 33.3094 33.4785 35.2628C32.7634 35.761 31.7788 36.7858 31.2864 37.5218C29.364 35.6931 27.6409 32.9584 26.3104 29.9577V40.3527H23.4033V30.4332C21.9733 33.3094 20.1563 35.8573 18.1577 37.6407C17.6888 37.0236 16.8273 36.1177 16.165 35.5459V40.3018H13.2813V28.2195C12.619 29.0065 11.9509 29.7425 11.2651 30.3596C10.9721 29.6689 10.0812 28.0779 9.56543 27.3872C12.0505 25.2244 14.4184 21.799 15.7957 18.2547L18.7028 19.1606C18.0112 20.8252 17.1496 22.5633 16.165 24.177V35.2628C18.6032 33.3378 20.8186 30.0313 22.2487 26.6512H17.1496V23.8939H23.4033V18.5208H26.3104V23.8939H32.7341V26.6512H27.594Z" fill="#0156A2"/>
</g>
<defs>
<clipPath id="clip0">
<rect width="44" height="49" fill="white"/>
</clipPath>
</defs>
</svg>
