<svg width="24" height="24" viewBox="0 0 24 24" fill="none" xmlns="http://www.w3.org/2000/svg">
<path d="M4.28571 6.85712H5.99999H19.7143" stroke="#0156A2" stroke-width="2" stroke-linecap="round" stroke-linejoin="round"/>
<path d="M8.57143 6.85716V5.14287C8.57143 4.68822 8.75204 4.25218 9.07353 3.93069C9.39502 3.6092 9.83106 3.42859 10.2857 3.42859H13.7143C14.1689 3.42859 14.605 3.6092 14.9265 3.93069C15.248 4.25218 15.4286 4.68822 15.4286 5.14287V6.85716M18 6.85716V18.8572C18 19.3118 17.8194 19.7479 17.4979 20.0693C17.1764 20.3908 16.7404 20.5714 16.2857 20.5714H7.71429C7.25963 20.5714 6.82359 20.3908 6.5021 20.0693C6.18061 19.7479 6 19.3118 6 18.8572V6.85716H18Z" stroke="#0156A2" stroke-width="2" stroke-linecap="round" stroke-linejoin="round"/>
</svg>
