<svg width="36" height="36" viewBox="0 0 36 36" fill="none" xmlns="http://www.w3.org/2000/svg">
<path d="M20.571 5.14285H10.2853C9.60331 5.14285 8.94926 5.41377 8.46702 5.89601C7.98478 6.37824 7.71387 7.0323 7.71387 7.71428V28.2857C7.71387 28.9677 7.98478 29.6217 8.46702 30.104C8.94926 30.5862 9.60331 30.8571 10.2853 30.8571H25.7139C26.3959 30.8571 27.0499 30.5862 27.5321 30.104C28.0144 29.6217 28.2853 28.9677 28.2853 28.2857V12.8571L20.571 5.14285Z" stroke="#0156A2" stroke-width="2" stroke-linecap="round" stroke-linejoin="round"/>
<path d="M20.5713 5.14285V12.8571H28.2856" stroke="#0156A2" stroke-width="2" stroke-linecap="round" stroke-linejoin="round"/>
<path d="M11 24.98H12.52L13.04 23.95C13.2 23.62 13.35 23.29 13.51 22.97H13.56C13.74 23.29 13.92 23.63 14.1 23.95L14.72 24.98H16.3L14.55 22.23L16.19 19.38H14.67L14.2 20.37C14.07 20.69 13.92 21.01 13.79 21.32H13.75C13.58 21.01 13.41 20.69 13.25 20.37L12.69 19.38H11.11L12.75 22.06L11 24.98Z" fill="#0156A2"/>
<path d="M18.6252 25.12C18.9752 25.12 19.2152 25.06 19.3852 24.99L19.2052 23.9C19.1052 23.92 19.0652 23.92 19.0052 23.92C18.8652 23.92 18.7152 23.81 18.7152 23.47V17H17.2452V23.41C17.2452 24.45 17.6052 25.12 18.6252 25.12Z" fill="#0156A2"/>
<path d="M21.9995 25.12C23.4595 25.12 24.2295 24.33 24.2295 23.35C24.2295 22.31 23.4095 21.94 22.6695 21.66C22.0795 21.44 21.5595 21.29 21.5595 20.88C21.5595 20.56 21.7995 20.34 22.3095 20.34C22.7195 20.34 23.1095 20.53 23.5095 20.82L24.1695 19.93C23.7095 19.58 23.0795 19.24 22.2695 19.24C20.9895 19.24 20.1795 19.95 20.1795 20.95C20.1795 21.89 20.9695 22.32 21.6795 22.59C22.2695 22.82 22.8495 23.01 22.8495 23.43C22.8495 23.78 22.5995 24.02 22.0395 24.02C21.5195 24.02 21.0395 23.8 20.5395 23.41L19.8695 24.33C20.4295 24.79 21.2495 25.12 21.9995 25.12Z" fill="#0156A2"/>
</svg>
