<svg width="36" height="36" viewBox="0 0 36 36" fill="none" xmlns="http://www.w3.org/2000/svg">
<path d="M20.571 5.14285H10.2853C9.60331 5.14285 8.94926 5.41377 8.46702 5.89601C7.98478 6.37824 7.71387 7.0323 7.71387 7.71428V28.2857C7.71387 28.9677 7.98478 29.6217 8.46702 30.104C8.94926 30.5862 9.60331 30.8571 10.2853 30.8571H25.7139C26.3959 30.8571 27.0499 30.5862 27.5321 30.104C28.0144 29.6217 28.2853 28.9677 28.2853 28.2857V12.8571L20.571 5.14285Z" stroke="#0156A2" stroke-width="2" stroke-linecap="round" stroke-linejoin="round"/>
<path d="M20.5713 5.14285V12.8571H28.2856" stroke="#0156A2" stroke-width="2" stroke-linecap="round" stroke-linejoin="round"/>
<path d="M12.4839 25.126C13.0059 25.126 13.5099 24.838 13.8789 24.478H13.9149L14.0139 25H15.0849V17.818H13.7709V19.591L13.8159 20.383C13.4559 20.05 13.1049 19.834 12.5379 19.834C11.4489 19.834 10.4229 20.842 10.4229 22.48C10.4229 24.136 11.2329 25.126 12.4839 25.126ZM12.8259 24.037C12.1599 24.037 11.7819 23.515 11.7819 22.471C11.7819 21.463 12.2589 20.923 12.8259 20.923C13.1409 20.923 13.4649 21.022 13.7709 21.301V23.515C13.4739 23.893 13.1769 24.037 12.8259 24.037Z" fill="#0156A2"/>
<path d="M18.6088 25.126C19.8688 25.126 21.0298 24.154 21.0298 22.48C21.0298 20.806 19.8688 19.834 18.6088 19.834C17.3488 19.834 16.1878 20.806 16.1878 22.48C16.1878 24.154 17.3488 25.126 18.6088 25.126ZM18.6088 24.046C17.9248 24.046 17.5378 23.434 17.5378 22.48C17.5378 21.535 17.9248 20.914 18.6088 20.914C19.2928 20.914 19.6798 21.535 19.6798 22.48C19.6798 23.434 19.2928 24.046 18.6088 24.046Z" fill="#0156A2"/>
<path d="M24.2786 25.126C24.8366 25.126 25.4486 24.937 25.9346 24.514L25.4036 23.641C25.1246 23.875 24.7826 24.046 24.4226 24.046C23.7026 24.046 23.1716 23.434 23.1716 22.48C23.1716 21.535 23.6936 20.914 24.4676 20.914C24.7466 20.914 24.9806 21.031 25.2326 21.247L25.8626 20.392C25.4936 20.077 25.0166 19.834 24.3956 19.834C23.0276 19.834 21.8216 20.806 21.8216 22.48C21.8216 24.154 22.8836 25.126 24.2786 25.126Z" fill="#0156A2"/>
</svg>
