<svg width="24" height="24" viewBox="0 0 24 24" fill="none" xmlns="http://www.w3.org/2000/svg">
<path d="M16.2856 19.7143V18C16.2856 17.0907 15.9244 16.2186 15.2814 15.5756C14.6384 14.9327 13.7663 14.5714 12.857 14.5714H5.99986C5.09055 14.5714 4.21848 14.9327 3.57549 15.5756C2.93251 16.2186 2.57129 17.0907 2.57129 18V19.7143" stroke="#0156A2" stroke-width="2" stroke-linecap="round" stroke-linejoin="round"/>
<path d="M9.42857 11.1429C11.3221 11.1429 12.8571 9.60783 12.8571 7.71428C12.8571 5.82074 11.3221 4.28571 9.42857 4.28571C7.53502 4.28571 6 5.82074 6 7.71428C6 9.60783 7.53502 11.1429 9.42857 11.1429Z" stroke="#0156A2" stroke-width="2" stroke-linecap="round" stroke-linejoin="round"/>
<path d="M21.4289 19.7143V18C21.4283 17.2403 21.1754 16.5024 20.71 15.902C20.2446 15.3016 19.593 14.8728 18.8574 14.6829" stroke="#0156A2" stroke-width="2" stroke-linecap="round" stroke-linejoin="round"/>
<path d="M15.4287 4.39714C16.1662 4.58597 16.8199 5.01488 17.2867 5.61626C17.7535 6.21764 18.0069 6.95728 18.0069 7.71857C18.0069 8.47986 17.7535 9.21949 17.2867 9.82087C16.8199 10.4223 16.1662 10.8512 15.4287 11.04" stroke="#0156A2" stroke-width="2" stroke-linecap="round" stroke-linejoin="round"/>
</svg>
