<svg width="24" height="24" viewBox="0 0 24 24" fill="none" xmlns="http://www.w3.org/2000/svg">
<path d="M18.2222 11H5.77778C4.79594 11 4 11.814 4 12.8182V19.1818C4 20.186 4.79594 21 5.77778 21H18.2222C19.2041 21 20 20.186 20 19.1818V12.8182C20 11.814 19.2041 11 18.2222 11Z" stroke="#F7FBFF" stroke-width="2" stroke-linecap="round" stroke-linejoin="round"/>
<path d="M8 11V7.44444C8 6.2657 8.42143 5.13524 9.17157 4.30175C9.92172 3.46825 10.9391 3 12 3C13.0609 3 14.0783 3.46825 14.8284 4.30175C15.5786 5.13524 16 6.2657 16 7.44444V11" stroke="#F7FBFF" stroke-width="2" stroke-linecap="round" stroke-linejoin="round"/>
</svg>
