<svg width="24" height="24" viewBox="0 0 24 24" fill="none" xmlns="http://www.w3.org/2000/svg">
<path d="M13.714 3.42871H6.85686C6.40221 3.42871 5.96617 3.60932 5.64468 3.93081C5.32319 4.2523 5.14258 4.68834 5.14258 5.143V18.8573C5.14258 19.3119 5.32319 19.748 5.64468 20.0695C5.96617 20.391 6.40221 20.5716 6.85686 20.5716H17.1426C17.5972 20.5716 18.0333 20.391 18.3548 20.0695C18.6763 19.748 18.8569 19.3119 18.8569 18.8573V8.57157L13.714 3.42871Z" stroke="#1FEBBA" stroke-width="2" stroke-linecap="round" stroke-linejoin="round"/>
<path d="M13.714 3.42871H6.85686C6.40221 3.42871 5.96617 3.60932 5.64468 3.93081C5.32319 4.2523 5.14258 4.68834 5.14258 5.143V18.8573C5.14258 19.3119 5.32319 19.748 5.64468 20.0695C5.96617 20.391 6.40221 20.5716 6.85686 20.5716H17.1426C17.5972 20.5716 18.0333 20.391 18.3548 20.0695C18.6763 19.748 18.8569 19.3119 18.8569 18.8573V8.57157L13.714 3.42871Z" stroke="url(#paint0_linear)" stroke-opacity="0.7" stroke-width="2" stroke-linecap="round" stroke-linejoin="round"/>
<path d="M13.7139 3.42871V8.57157H18.8567" stroke="#1FEBBA" stroke-width="2" stroke-linecap="round" stroke-linejoin="round"/>
<path d="M13.7139 3.42871V8.57157H18.8567" stroke="url(#paint1_linear)" stroke-opacity="0.7" stroke-width="2" stroke-linecap="round" stroke-linejoin="round"/>
<path d="M15.4284 12.8569H8.57129" stroke="#1FEBBA" stroke-width="2" stroke-linecap="round" stroke-linejoin="round"/>
<path d="M15.4284 12.8569H8.57129" stroke="url(#paint2_linear)" stroke-opacity="0.7" stroke-width="2" stroke-linecap="round" stroke-linejoin="round"/>
<path d="M15.4284 16.2856H8.57129" stroke="#1FEBBA" stroke-width="2" stroke-linecap="round" stroke-linejoin="round"/>
<path d="M15.4284 16.2856H8.57129" stroke="url(#paint3_linear)" stroke-opacity="0.7" stroke-width="2" stroke-linecap="round" stroke-linejoin="round"/>
<path d="M10.2856 9.42871H9.42843H8.57129" stroke="#1FEBBA" stroke-width="2" stroke-linecap="round" stroke-linejoin="round"/>
<path d="M10.2856 9.42871H9.42843H8.57129" stroke="url(#paint4_linear)" stroke-opacity="0.7" stroke-width="2" stroke-linecap="round" stroke-linejoin="round"/>
<defs>
<linearGradient id="paint0_linear" x1="5.14258" y1="3.42871" x2="5.14258" y2="20.5716" gradientUnits="userSpaceOnUse">
<stop stop-color="#64FFEC"/>
<stop offset="1" stop-color="white" stop-opacity="0"/>
</linearGradient>
<linearGradient id="paint1_linear" x1="13.7139" y1="3.42871" x2="13.7139" y2="8.57157" gradientUnits="userSpaceOnUse">
<stop stop-color="#64FFEC"/>
<stop offset="1" stop-color="white" stop-opacity="0"/>
</linearGradient>
<linearGradient id="paint2_linear" x1="8.57129" y1="12.8569" x2="8.57129" y2="13.8569" gradientUnits="userSpaceOnUse">
<stop stop-color="#64FFEC"/>
<stop offset="1" stop-color="white" stop-opacity="0"/>
</linearGradient>
<linearGradient id="paint3_linear" x1="8.57129" y1="16.2856" x2="8.57129" y2="17.2856" gradientUnits="userSpaceOnUse">
<stop stop-color="#64FFEC"/>
<stop offset="1" stop-color="white" stop-opacity="0"/>
</linearGradient>
<linearGradient id="paint4_linear" x1="8.57129" y1="9.42871" x2="8.57129" y2="10.4287" gradientUnits="userSpaceOnUse">
<stop stop-color="#64FFEC"/>
<stop offset="1" stop-color="white" stop-opacity="0"/>
</linearGradient>
</defs>
</svg>
