<svg width="24" height="24" viewBox="0 0 24 24" fill="none" xmlns="http://www.w3.org/2000/svg">
<path d="M13.7145 3.42871H6.85735C6.4027 3.42871 5.96666 3.60932 5.64517 3.93081C5.32368 4.2523 5.14307 4.68834 5.14307 5.143V18.8573C5.14307 19.3119 5.32368 19.748 5.64517 20.0695C5.96666 20.391 6.4027 20.5716 6.85735 20.5716H17.1431C17.5977 20.5716 18.0338 20.391 18.3553 20.0695C18.6767 19.748 18.8574 19.3119 18.8574 18.8573V8.57157L13.7145 3.42871Z" stroke="white" stroke-width="2" stroke-linecap="round" stroke-linejoin="round"/>
<path d="M13.7144 3.42871V8.57157H18.8572" stroke="white" stroke-width="2" stroke-linecap="round" stroke-linejoin="round"/>
<path d="M15.4284 12.8569H8.57129" stroke="white" stroke-width="2" stroke-linecap="round" stroke-linejoin="round"/>
<path d="M15.4284 16.2856H8.57129" stroke="white" stroke-width="2" stroke-linecap="round" stroke-linejoin="round"/>
<path d="M10.2856 9.42871H9.42843H8.57129" stroke="white" stroke-width="2" stroke-linecap="round" stroke-linejoin="round"/>
</svg>
