<svg width="24" height="24" viewBox="0 0 24 24" fill="none" xmlns="http://www.w3.org/2000/svg">
<path d="M8.57129 6.85693H19.7141" stroke="#1FEBBA" stroke-width="2" stroke-linecap="round" stroke-linejoin="round"/>
<path d="M8.57129 6.85693H19.7141" stroke="url(#paint0_linear)" stroke-opacity="0.7" stroke-width="2" stroke-linecap="round" stroke-linejoin="round"/>
<path d="M8.57129 12H19.7141" stroke="#1FEBBA" stroke-width="2" stroke-linecap="round" stroke-linejoin="round"/>
<path d="M8.57129 12H19.7141" stroke="url(#paint1_linear)" stroke-opacity="0.7" stroke-width="2" stroke-linecap="round" stroke-linejoin="round"/>
<path d="M8.57129 17.1431H19.7141" stroke="#1FEBBA" stroke-width="2" stroke-linecap="round" stroke-linejoin="round"/>
<path d="M8.57129 17.1431H19.7141" stroke="url(#paint2_linear)" stroke-opacity="0.7" stroke-width="2" stroke-linecap="round" stroke-linejoin="round"/>
<mask id="path-4-inside-1" fill="white">
<ellipse cx="4.28585" cy="6.85714" rx="0.857143" ry="0.857143"/>
</mask>
<path d="M4.143 6.85714C4.143 6.77825 4.20696 6.71429 4.28585 6.71429V8.71429C5.31153 8.71429 6.143 7.88281 6.143 6.85714H4.143ZM4.28585 6.71429C4.36475 6.71429 4.42871 6.77825 4.42871 6.85714H2.42871C2.42871 7.88281 3.26018 8.71429 4.28585 8.71429V6.71429ZM4.42871 6.85714C4.42871 6.93604 4.36475 7 4.28585 7V5C3.26018 5 2.42871 5.83147 2.42871 6.85714H4.42871ZM4.28585 7C4.20696 7 4.143 6.93604 4.143 6.85714H6.143C6.143 5.83147 5.31153 5 4.28585 5V7Z" fill="#1FEBBA" mask="url(#path-4-inside-1)"/>
<path d="M4.143 6.85714C4.143 6.77825 4.20696 6.71429 4.28585 6.71429V8.71429C5.31153 8.71429 6.143 7.88281 6.143 6.85714H4.143ZM4.28585 6.71429C4.36475 6.71429 4.42871 6.77825 4.42871 6.85714H2.42871C2.42871 7.88281 3.26018 8.71429 4.28585 8.71429V6.71429ZM4.42871 6.85714C4.42871 6.93604 4.36475 7 4.28585 7V5C3.26018 5 2.42871 5.83147 2.42871 6.85714H4.42871ZM4.28585 7C4.20696 7 4.143 6.93604 4.143 6.85714H6.143C6.143 5.83147 5.31153 5 4.28585 5V7Z" fill="url(#paint3_linear)" fill-opacity="0.7" mask="url(#path-4-inside-1)"/>
<mask id="path-6-inside-2" fill="white">
<ellipse cx="4.28585" cy="12.0002" rx="0.857143" ry="0.857143"/>
</mask>
<path d="M4.143 12.0002C4.143 11.9213 4.20696 11.8574 4.28585 11.8574V13.8574C5.31153 13.8574 6.143 13.0259 6.143 12.0002H4.143ZM4.28585 11.8574C4.36475 11.8574 4.42871 11.9213 4.42871 12.0002H2.42871C2.42871 13.0259 3.26018 13.8574 4.28585 13.8574V11.8574ZM4.42871 12.0002C4.42871 12.0791 4.36475 12.1431 4.28585 12.1431V10.1431C3.26018 10.1431 2.42871 10.9745 2.42871 12.0002H4.42871ZM4.28585 12.1431C4.20696 12.1431 4.143 12.0791 4.143 12.0002H6.143C6.143 10.9745 5.31153 10.1431 4.28585 10.1431V12.1431Z" fill="#1FEBBA" mask="url(#path-6-inside-2)"/>
<path d="M4.143 12.0002C4.143 11.9213 4.20696 11.8574 4.28585 11.8574V13.8574C5.31153 13.8574 6.143 13.0259 6.143 12.0002H4.143ZM4.28585 11.8574C4.36475 11.8574 4.42871 11.9213 4.42871 12.0002H2.42871C2.42871 13.0259 3.26018 13.8574 4.28585 13.8574V11.8574ZM4.42871 12.0002C4.42871 12.0791 4.36475 12.1431 4.28585 12.1431V10.1431C3.26018 10.1431 2.42871 10.9745 2.42871 12.0002H4.42871ZM4.28585 12.1431C4.20696 12.1431 4.143 12.0791 4.143 12.0002H6.143C6.143 10.9745 5.31153 10.1431 4.28585 10.1431V12.1431Z" fill="url(#paint4_linear)" fill-opacity="0.7" mask="url(#path-6-inside-2)"/>
<mask id="path-8-inside-3" fill="white">
<ellipse cx="4.28585" cy="17.1428" rx="0.857143" ry="0.857143"/>
</mask>
<path d="M4.143 17.1428C4.143 17.0639 4.20695 16.9999 4.28585 16.9999V18.9999C5.31153 18.9999 6.143 18.1685 6.143 17.1428H4.143ZM4.28585 16.9999C4.36475 16.9999 4.42871 17.0639 4.42871 17.1428H2.42871C2.42871 18.1685 3.26018 18.9999 4.28585 18.9999V16.9999ZM4.42871 17.1428C4.42871 17.2217 4.36475 17.2856 4.28585 17.2856V15.2856C3.26018 15.2856 2.42871 16.1171 2.42871 17.1428H4.42871ZM4.28585 17.2856C4.20695 17.2856 4.143 17.2217 4.143 17.1428H6.143C6.143 16.1171 5.31153 15.2856 4.28585 15.2856V17.2856Z" fill="#1FEBBA" mask="url(#path-8-inside-3)"/>
<path d="M4.143 17.1428C4.143 17.0639 4.20695 16.9999 4.28585 16.9999V18.9999C5.31153 18.9999 6.143 18.1685 6.143 17.1428H4.143ZM4.28585 16.9999C4.36475 16.9999 4.42871 17.0639 4.42871 17.1428H2.42871C2.42871 18.1685 3.26018 18.9999 4.28585 18.9999V16.9999ZM4.42871 17.1428C4.42871 17.2217 4.36475 17.2856 4.28585 17.2856V15.2856C3.26018 15.2856 2.42871 16.1171 2.42871 17.1428H4.42871ZM4.28585 17.2856C4.20695 17.2856 4.143 17.2217 4.143 17.1428H6.143C6.143 16.1171 5.31153 15.2856 4.28585 15.2856V17.2856Z" fill="url(#paint5_linear)" fill-opacity="0.7" mask="url(#path-8-inside-3)"/>
<defs>
<linearGradient id="paint0_linear" x1="8.57129" y1="6.85693" x2="8.57129" y2="7.85693" gradientUnits="userSpaceOnUse">
<stop stop-color="#64FFEC"/>
<stop offset="1" stop-color="white" stop-opacity="0"/>
</linearGradient>
<linearGradient id="paint1_linear" x1="8.57129" y1="12" x2="8.57129" y2="13" gradientUnits="userSpaceOnUse">
<stop stop-color="#64FFEC"/>
<stop offset="1" stop-color="white" stop-opacity="0"/>
</linearGradient>
<linearGradient id="paint2_linear" x1="8.57129" y1="17.1431" x2="8.57129" y2="18.1431" gradientUnits="userSpaceOnUse">
<stop stop-color="#64FFEC"/>
<stop offset="1" stop-color="white" stop-opacity="0"/>
</linearGradient>
<linearGradient id="paint3_linear" x1="3.42871" y1="6" x2="3.42871" y2="7.71429" gradientUnits="userSpaceOnUse">
<stop stop-color="#64FFEC"/>
<stop offset="1" stop-color="white" stop-opacity="0"/>
</linearGradient>
<linearGradient id="paint4_linear" x1="3.42871" y1="11.1431" x2="3.42871" y2="12.8574" gradientUnits="userSpaceOnUse">
<stop stop-color="#64FFEC"/>
<stop offset="1" stop-color="white" stop-opacity="0"/>
</linearGradient>
<linearGradient id="paint5_linear" x1="3.42871" y1="16.2856" x2="3.42871" y2="17.9999" gradientUnits="userSpaceOnUse">
<stop stop-color="#64FFEC"/>
<stop offset="1" stop-color="white" stop-opacity="0"/>
</linearGradient>
</defs>
</svg>
