<svg width="24" height="24" viewBox="0 0 24 24" fill="none" xmlns="http://www.w3.org/2000/svg">
<path d="M5.99499 4.28572H15.2228C15.3693 4.28572 15.5158 4.33455 15.6134 4.43219L19.5682 8.43581C19.6659 8.53346 19.7147 8.63111 19.7147 8.77758V18.0054C19.7147 18.9331 18.9335 19.7143 18.0058 19.7143H5.99499C5.06733 19.7143 4.28613 18.9331 4.28613 18.0054V5.99458C4.28613 5.06691 5.06733 4.28572 5.99499 4.28572ZM7.85033 18.7378V13.123C7.85033 12.83 8.09445 12.6347 8.3874 12.6347H15.6623C15.9552 12.6347 16.1505 12.8788 16.1505 13.123V18.7378H18.0058C18.3964 18.7378 18.7382 18.396 18.7382 18.0054V8.97288L15.0275 5.26221H8.3874V7.65462H14.0999C14.7346 7.65462 14.7346 8.63111 14.0999 8.63111H7.89915C7.60621 8.63111 7.41091 8.43581 7.41091 8.14286V5.26221H5.99499C5.6044 5.26221 5.26262 5.60398 5.26262 5.99458V18.0054C5.26262 18.396 5.6044 18.7378 5.99499 18.7378H7.85033ZM15.174 18.7378V13.6112H8.82682V18.7378H15.174Z" fill="#0156A2" stroke="#0156A2"/>
</svg>
